PathFileType	4	(X/Y/Z)	markers.trc																																																																																																																																																																
DataRate	CameraRate	NumFrames	NumMarkers	Units	OrigDataRate	OrigDataStartFrame	OrigNumFrames																																																																																																																																																												
200	200	5	54	mm	200	986	100																																																																																																																																																												
Frame#	Time	FHD			LBHD			RBHD			C7			T10			CLAV			LSHO			LUUPA			LMUPA			LDUPA			LLEP			LMEP			LRAD			LUL			LRFIN			RSHO			RUPA1			RMUPA			RDUPA			RLEP			RMEP			RRAD			RUL			RUFIN			RASI			USACR			LSACR			RSACR			LTHI1			LTHI2			LTHI3			LTHI4			LTIB1			LTIB2			LTIB3			LTIB4			LLMAL			LHEE			LMT1			LMT2			RTHI			RTHI2			RTHI3			RTHI4			RLFC			RTIB1			RTIB2			RTIB3			RTIB4			RLMAL			RHEE			RMT1			RMT2			RMT5		
		X1	Y1	Z1	X2	Y2	Z2	X3	Y3	Z3	X4	Y4	Z4	X5	Y5	Z5	X6	Y6	Z6	X7	Y7	Z7	X8	Y8	Z8	X9	Y9	Z9	X10	Y10	Z10	X11	Y11	Z11	X12	Y12	Z12	X13	Y13	Z13	X14	Y14	Z14	X15	Y15	Z15	X16	Y16	Z16	X17	Y17	Z17	X18	Y18	Z18	X19	Y19	Z19	X20	Y20	Z20	X21	Y21	Z21	X22	Y22	Z22	X23	Y23	Z23	X24	Y24	Z24	X25	Y25	Z25	X26	Y26	Z26	X27	Y27	Z27	X28	Y28	Z28	X29	Y29	Z29	X30	Y30	Z30	X31	Y31	Z31	X32	Y32	Z32	X33	Y33	Z33	X34	Y34	Z34	X35	Y35	Z35	X36	Y36	Z36	X37	Y37	Z37	X38	Y38	Z38	X39	Y39	Z39	X40	Y40	Z40	X41	Y41	Z41	X42	Y42	Z42	X43	Y43	Z43	X44	Y44	Z44	X45	Y45	Z45	X46	Y46	Z46	X47	Y47	Z47	X48	Y48	Z48	X49	Y49	Z49	X50	Y50	Z50	X51	Y51	Z51	X52	Y52	Z52	X53	Y53	Z53	X54	Y54	Z54
																																																																																																																																																																			
986	4.925	-2509.535082	1497.625714	346.794196	-2683.180094	1536.9994	256.344151	-2650.699002	1511.419184	380.203517	-2754.835421	1407.905147	292.024061	-2972.003977	1124.476383	301.313396	-2662.835454	1272.978433	266.974354	-2664.255161	1336.354399	136.846208	-2815.452113	1361.301861	20.631775	-2838.016145	1317.658053	10.21881	-2880.040584	1360.596551	-2.144686	-2993.793759	1373.104505	-33.562862	-3016.087423	1374.840745	31.891082	-3167.890868	1180.915863	-77.586016	-3221.418224	1230.427479	-99.197074	-3173.6427	1145.918371	-143.386871	-2689.080116	1374.166216	409.925184	-2640.966564	1249.571678	521.054694	-2598.65535	1238.618444	508.325403	-2609.345287	1196.346927	552.619961	-2532.370298	1083.93038	574.628804	-2550.976527	1041.260389	515.097326	-2457.371119	1277.161987	408.618015	-2398.145973	1258.912642	431.572178	-2436.645009	1350.962736	432.38629	-2918.461863	888.688682	408.320692	-3021.00349	1052.080693	293.384337	-3038.884607	1024.907302	264.373311	-3039.609647	1024.652297	323.42055	-2818.713424	803.047117	94.718623	-2734.570364	788.216439	105.161324	-2713.51153	822.170083	133.699531	-2705.573245	733.021569	110.040237	-2618.692347	507.599699	175.00619	-2687.132716	501.27974	122.984679	-2658.785284	479.461421	146.160163	-2702.422487	410.602308	176.863869	-2829.957273	305.907505	161.577706	-2922.442258	289.95029	200.630166	-2718.371438	208.441503	233.200756	-2711.490786	210.76093	187.208998	-3098.658898	701.838463	464.526663	-3101.568006	635.889221	462.78185	-3075.086992	615.824071	455.614398	-3173.755425	591.03134	441.722122	-3225.28264	494.309099	429.217097	-3356.057802	315.332104	395.673843	-3459.439513	322.185734	430.812128	-3432.791462	284.281069	417.5324	-3463.813315	245.307982	387.586294	-3576.667194	232.628613	416.902967	-3644.175186	260.178742	364.265095	-3537.088897	72.278735	349.263718	-3540.402293	72.395267	391.179716	-3586.26783	89.08051	441.097529
987	4.93	-2480.04045	1501.542377	344.151001	-2653.486761	1539.796003	252.937683	-2621.30801	1514.934714	376.564838	-2724.927592	1411.000214	289.524773	-2941.918599	1127.93121	303.609831	-2633.107189	1276.498353	264.85748	-2635.141623	1338.268098	134.326869	-2787.858241	1360.84688	19.322939	-2810.167496	1317.048118	9.644674	-2852.759472	1359.491956	-2.304045	-2967.084273	1370.394297	-32.793039	-2988.890803	1371.593576	32.885843	-3135.482619	1172.486031	-74.518242	-3190.705189	1220.180351	-96.049354	-3140.425571	1137.097921	-140.1005	-2658.206091	1377.390271	408.110157	-2614.928773	1250.857518	520.712229	-2572.847432	1238.274439	508.794859	-2585.903421	1196.716982	552.841483	-2513.409123	1081.911674	575.866271	-2533.406902	1039.350094	516.771739	-2431.746582	1269.515883	407.068029	-2373.567287	1249.80621	430.983863	-2408.668556	1342.568212	429.701972	-2885.001555	891.54267	408.255557	-2990.32876	1055.391575	296.541142	-3008.548432	1028.11457	267.835808	-3008.197153	1027.72923	326.956993	-2790.638696	805.053627	93.543758	-2706.466952	790.012456	102.639256	-2684.839444	824.200284	130.299266	-2677.505162	734.760675	107.543024	-2581.209171	507.567833	172.061155	-2649.044094	495.843902	120.076638	-2619.12274	476.432373	143.570412	-2658.255259	405.351281	175.743241	-2779.038255	292.250994	162.529395	-2870.043177	270.991367	202.500899	-2660.79927	203.042954	234.593895	-2654.557845	204.812689	188.549058	-3064.677411	704.113981	464.996507	-3068.163334	638.128644	461.697192	-3041.996855	617.91988	453.42598	-3141.011967	594.578734	442.115776	-3195.032378	498.997018	427.109354	-3331.139601	323.637713	394.827687	-3434.219666	333.169124	430.41556	-3408.532293	294.710871	417.222609	-3440.48853	256.274068	387.306538	-3553.269689	247.138383	417.170129	-3617.49486	280.377184	364.159342	-3527.202629	81.773982	347.809636	-3530.639706	81.791532	389.822401	-3575.427562	102.884059	438.996989
988	4.935	-2450.41532	1505.612416	341.614033	-2623.664357	1542.423316	249.555042	-2591.788335	1518.460005	372.931003	-2694.789917	1414.084883	287.144253	-2911.938799	1131.829069	305.491952	-2603.339552	1279.78739	263.066645	-2606.085518	1340.112339	131.920423	-2760.441616	1359.51346	17.790244	-2782.300828	1315.461315	9.001302	-2825.57433	1357.155373	-2.843346	-2940.476413	1365.818292	-32.56921	-2961.988666	1366.746045	33.28311	-3101.83064	1161.568421	-71.2376	-3158.832207	1206.991427	-93.025679	-3105.617846	1125.480296	-136.355906	-2626.876214	1380.205471	406.828398	-2589.366546	1251.373889	520.527916	-2547.700664	1236.848892	509.377179	-2563.392791	1196.23036	553.217831	-2496.175335	1078.738136	577.02947	-2517.784962	1036.625836	518.268621	-2404.834898	1259.058302	406.326366	-2348.202417	1237.169027	431.396175	-2378.589292	1330.890986	428.138905	-2851.800159	895.073107	408.174355	-2959.917908	1059.085915	299.290422	-2978.392311	1031.70387	270.830577	-2977.106071	1031.204233	329.965558	-2762.907994	805.948605	92.272908	-2678.770652	790.370038	100.007847	-2656.440101	824.767247	126.680209	-2650.080438	734.964019	104.997434	-2545.320369	506.389588	169.176713	-2612.248448	489.408403	117.279806	-2580.932639	472.447483	141.06512	-2615.539854	399.558183	174.721505	-2729.306149	278.785896	163.467277	-2818.542034	252.74301	204.439819	-2605.213633	197.824765	235.840868	-2599.563169	198.915176	189.750391	-3030.093756	706.124842	465.472395	-3033.775925	640.127473	460.744964	-3007.80609	619.956657	451.614905	-3106.916739	597.262784	442.610521	-3162.625575	502.55751	425.514505	-3304.452574	331.651797	393.883622	-3407.196562	344.375353	429.594517	-3382.66011	305.3326	416.60842	-3415.621618	267.704693	386.39943	-3528.33218	262.61107	416.41852	-3588.969052	301.223886	363.078715	-3514.873674	93.639799	345.511883	-3518.601929	93.532799	387.587444	-3562.297043	118.663934	435.989986
989	4.94	-2420.641089	1509.730514	339.136437	-2593.727997	1544.912677	246.26129	-2562.102795	1521.932148	369.364493	-2664.418547	1417.137738	284.910919	-2882.061828	1136.087903	306.994168	-2573.541413	1282.806905	261.571801	-2577.092563	1341.910606	129.626434	-2733.168236	1357.369177	16.059333	-2754.377046	1312.974797	8.302946	-2798.440876	1353.644256	-3.75436	-2913.897086	1359.465231	-32.809121	-2935.283823	1360.35017	33.190549	-3066.814061	1148.419586	-67.705194	-3125.644632	1191.112465	-90.037203	-3069.09465	1111.38416	-132.123133	-2595.071679	1382.549114	406.022901	-2564.193324	1251.241039	520.434336	-2523.164944	1234.502274	509.962468	-2541.677973	1195.081273	553.697197	-2480.494027	1074.740968	578.097063	-2503.869119	1033.40424	519.546766	-2376.794059	1245.923439	406.550288	-2322.280609	1221.225198	432.934366	-2346.667973	1315.994829	427.937708	-2818.861777	899.172356	408.083471	-2929.772886	1063.072586	301.658801	-2948.434315	1035.595773	273.375286	-2946.349429	1034.987692	332.466282	-2735.480801	805.917412	90.942498	-2651.449104	789.473145	97.324433	-2628.296476	824.010942	122.970896	-2623.268907	733.818671	102.437424	-2511.052762	504.133786	166.369656	-2576.86866	482.135108	114.670918	-2544.325547	467.610213	138.683688	-2574.413763	393.292375	173.789752	-2681.037778	265.616105	164.367914	-2768.28433	235.333407	206.436326	-2551.829403	192.720783	236.857085	-2546.724178	193.036558	190.711322	-2995.041353	707.799896	465.974205	-2998.538237	641.799369	459.950742	-2972.647244	621.839911	450.220555	-3071.614382	599.014598	443.245328	-3128.250563	504.873115	424.483687	-3276.10808	339.347663	392.807772	-3378.419709	355.789067	428.360515	-3355.247778	316.145432	415.694301	-3389.286501	279.614971	384.880509	-3501.90964	279.049964	414.695306	-3558.815954	322.609446	361.154678	-3499.878227	107.890075	342.282105	-3503.985395	107.655407	384.396661	-3546.560178	136.300855	432.140595
990	4.945	-2390.711007	1513.783098	336.67546	-2563.7012	1547.292251	243.114852	-2532.230196	1525.281552	365.923534	-2633.821139	1420.137849	282.841582	-2852.278273	1140.617483	308.162467	-2543.728126	1285.538141	260.318606	-2548.167448	1343.675186	127.436006	-2705.998821	1354.482148	14.171524	-2726.352841	1309.672088	7.570536	-2771.305939	1349.024529	-5.002627	-2887.258895	1351.432287	-33.410915	-2908.665576	1352.460768	32.724696	-3030.30453	1133.3314	-63.881907	-3090.975013	1172.834047	-86.985313	-3030.7297	1095.180581	-127.378923	-2562.809145	1384.365064	405.614412	-2539.341696	1250.584128	520.366325	-2499.200764	1231.414794	510.451086	-2520.631274	1193.461027	554.208494	-2466.168802	1070.259291	579.04472	-2491.381084	1030.00165	520.567786	-2347.894534	1230.238667	407.893263	-2296.143694	1202.220437	435.704571	-2313.307209	1297.92122	429.307106	-2786.17571	903.700283	407.988158	-2899.876616	1067.253379	303.691042	-2918.674047	1039.697507	275.516122	-2915.906352	1038.981166	334.511635	-2708.351768	805.156119	89.59101	-2624.510769	787.517898	94.628979	-2600.418142	822.086388	119.259598	-2597.084006	731.524736	99.907074	-2478.409601	500.897812	163.637294	-2543.004543	474.198159	112.305708	-2509.384094	462.042532	136.446449	-2534.999241	386.639965	172.929735	-2634.508892	252.851693	165.219942	-2719.614108	218.886134	208.489654	-2500.854638	187.674062	237.579417	-2496.259404	187.157794	191.352521	-2959.637932	709.096344	466.53133	-2962.573771	643.092378	459.345424	-2936.650508	623.506578	449.255021	-3035.253255	599.828339	444.044502	-3092.115295	505.916418	424.014319	-3246.179284	346.741184	391.567486	-3347.899119	367.386703	426.74665	-3326.312003	327.151281	414.487874	-3361.485597	292.003584	382.789751	-3473.973841	296.399302	412.089534	-3527.154507	344.422305	358.554192	-3482.039913	124.406453	338.099039	-3486.552539	124.038843	380.238778	-3527.974429	155.585874	427.542523
